<?xml version="1.0" encoding="UTF-8" standalone="no"?>
<svg
   xmlns:dc="http://purl.org/dc/elements/1.1/"
   xmlns:cc="http://creativecommons.org/ns#"
   xmlns:rdf="http://www.w3.org/1999/02/22-rdf-syntax-ns#"
   xmlns:svg="http://www.w3.org/2000/svg"
   xmlns="http://www.w3.org/2000/svg"
   xmlns:sodipodi="http://sodipodi.sourceforge.net/DTD/sodipodi-0.dtd"
   xmlns:inkscape="http://www.inkscape.org/namespaces/inkscape"
   viewBox="0 0 512.2 512.2"
   width="512"
   height="512"
   version="1.1"
   id="svg4"
   sodipodi:docname="arrow-right.svg"
   inkscape:version="0.92.2 (5c3e80d, 2017-08-06)">
  <metadata
     id="metadata10">
    <rdf:RDF>
      <cc:Work
         rdf:about="">
        <dc:format>image/svg+xml</dc:format>
        <dc:type
           rdf:resource="http://purl.org/dc/dcmitype/StillImage" />
      </cc:Work>
    </rdf:RDF>
  </metadata>
  <defs
     id="defs8" />
  <sodipodi:namedview
     pagecolor="#ffffff"
     bordercolor="#666666"
     borderopacity="1"
     objecttolerance="10"
     gridtolerance="10"
     guidetolerance="10"
     inkscape:pageopacity="0"
     inkscape:pageshadow="2"
     inkscape:window-width="1920"
     inkscape:window-height="1027"
     id="namedview6"
     showgrid="false"
     inkscape:zoom="0.4609375"
     inkscape:cx="256"
     inkscape:cy="256"
     inkscape:window-x="-8"
     inkscape:window-y="22"
     inkscape:window-maximized="1"
     inkscape:current-layer="svg4" />
  <path
     d="M 10.8,160 H 277.5 V 42.7 c 0,-4.3 2.6,-8.2 6.6,-9.9 4,-1.7 8.6,-0.7 11.6,2.3 l 213.5,213.4 c 2,2 3.1,4.7 3.1,7.5 0,2.8 -1.1,5.5 -3.1,7.6 L 295.7,477 c -2,2 -4.8,3.1 -7.6,3.1 -1.4,0 -2.8,-0.3 -4.1,-0.8 -4,-1.7 -6.6,-5.5 -6.6,-9.9 V 352 H 10.7 C 4.8,352 0,347.2 0,341.3 V 170.7 C 0.1,164.8 4.9,160 10.8,160 Z"
     id="path2"
     inkscape:connector-curvature="0"
     style="fill:#34a3ce" />
</svg>
